<svg width="44" height="42" viewBox="0 0 44 42" fill="none" xmlns="http://www.w3.org/2000/svg">
<path d="M11.4379 32.917C8.50785 32.917 5.90157 31.0065 4.95517 28.1624L4.89116 27.948C4.66797 27.1948 4.57447 26.5614 4.57447 25.9277V13.22L0.13437 28.3132C-0.436686 30.5332 0.864611 32.8347 3.04796 33.448L31.3491 41.1663C31.7023 41.2594 32.0555 41.3041 32.4034 41.3041C34.2262 41.3041 35.8917 40.0721 36.3586 38.2566L38.0074 32.917H11.4379Z" fill="#E3140E"/>
<path d="M16.4711 13.3469C18.4899 13.3469 20.1314 11.675 20.1314 9.61919C20.1314 7.56335 18.4899 5.89145 16.4711 5.89145C14.4523 5.89145 12.8105 7.56335 12.8105 9.61919C12.8105 11.675 14.4523 13.3469 16.4711 13.3469Z" fill="#E3140E"/>
<path d="M39.3494 0.30011H11.8958C9.37397 0.30011 7.32031 2.39144 7.32031 4.95987V25.4616C7.32031 28.03 9.37397 30.1213 11.8958 30.1213H39.3494C41.8716 30.1213 43.9252 28.03 43.9252 25.4616V4.95987C43.9252 2.39144 41.8716 0.30011 39.3494 0.30011ZM11.8958 4.02785H39.3494C39.8548 4.02785 40.2646 4.44523 40.2646 4.95987V18.1911L34.483 11.3209C33.8697 10.5885 32.982 10.1971 32.0285 10.1749C31.0805 10.1803 30.191 10.609 29.5835 11.3509L22.7857 19.6596L20.5712 17.4099C19.3195 16.1352 17.2823 16.1352 16.0323 17.4099L10.9809 22.5522V4.95987C10.9809 4.44523 11.3908 4.02785 11.8958 4.02785Z" fill="#E3140E"/>
</svg>
