<svg width="42" height="43" viewBox="0 0 42 43" fill="none" xmlns="http://www.w3.org/2000/svg">
<path d="M40.7549 0H0.690734C0.308738 0 0 0.315871 0 0.70503V41.5984C0 41.9876 0.308738 42.3035 0.690734 42.3035H40.7549C41.1369 42.3035 41.4456 41.9876 41.4456 41.5984V0.70503C41.4457 0.315871 41.1369 0 40.7549 0ZM23.4859 32.4326C23.4859 35.9311 20.6973 38.7782 17.269 38.7782C13.8408 38.7782 11.0522 35.9311 11.0522 32.4326C11.0522 32.0435 11.3609 31.7276 11.7429 31.7276C12.1249 31.7276 12.4336 32.0435 12.4336 32.4326C12.4336 35.1542 14.6033 37.368 17.2689 37.368C19.9346 37.368 22.1042 35.1541 22.1042 32.4326V15.5112C22.1042 15.1221 22.413 14.8062 22.795 14.8062C23.177 14.8062 23.4857 15.1221 23.4857 15.5112V32.4326H23.4859ZM31.775 26.0871C35.2033 26.0871 37.9918 28.9342 37.9918 32.4326C37.9918 35.9311 35.2033 38.7782 31.775 38.7782C28.3467 38.7782 25.5581 35.9311 25.5581 32.4326C25.5581 32.0435 25.8669 31.7276 26.2489 31.7276C26.6309 31.7276 26.9396 32.0435 26.9396 32.4326C26.9396 35.1542 29.1093 37.368 31.7749 37.368C34.4406 37.368 36.6102 35.1541 36.6102 32.4326C36.6102 29.7111 34.4406 27.4973 31.7749 27.4973C28.3467 27.4973 25.5581 24.6502 25.5581 21.1517C25.5581 17.6533 28.3467 14.8062 31.7749 14.8062C35.2032 14.8062 37.9918 17.6533 37.9918 21.1517C37.9918 21.5409 37.683 21.8568 37.301 21.8568C36.919 21.8568 36.6103 21.5409 36.6103 21.1517C36.6103 18.4302 34.4406 16.2164 31.775 16.2164C29.1094 16.2164 26.9397 18.4303 26.9397 21.1517C26.9397 23.8732 29.1094 26.0871 31.775 26.0871Z" fill="#E3140E"/>
</svg>
