<svg width="20" height="20" viewBox="0 0 20 20" fill="none" xmlns="http://www.w3.org/2000/svg">
<path d="M18.5247 16.3748L3.62481 1.47489C2.97499 0.825062 1.92146 0.825062 1.27264 1.47489L0.48737 2.25894C-0.162457 2.90897 -0.162457 3.96251 0.48737 4.61132L15.3873 19.5112C16.0373 20.1611 17.0908 20.1611 17.7397 19.5112L18.5237 18.7272C19.1748 18.0784 19.1748 17.0246 18.5247 16.3748Z" fill="#E3140E"/>
<path d="M15.3873 1.47495L0.48737 16.3749C-0.162457 17.0247 -0.162457 18.0784 0.48737 18.7272L1.27143 19.5113C1.92146 20.1611 2.97499 20.1611 3.6238 19.5113L18.5247 4.61239C19.1748 3.96257 19.1748 2.90904 18.5247 2.26022L17.7407 1.47617C17.0908 0.825123 16.0373 0.825123 15.3873 1.47495Z" fill="#E3140E"/>
</svg>
