<svg width="80" height="80" viewBox="0 0 80 80" fill="none" xmlns="http://www.w3.org/2000/svg">
<g filter="url(#filter0_d)">
<circle cx="40" cy="36" r="36" fill="white"/>
</g>
<path fill-rule="evenodd" clip-rule="evenodd" d="M22.6094 56L18.625 11H62.375L58.3844 56.0031L40.5 61L22.6094 56ZM53.3531 31.3687L53.8562 25.7156L54.35 20.2H40.5H26.65L27.0094 25.4156L48.3844 25.3562L47.9719 30.9625L27.5562 31.2031L28.1062 36.4406L47.5062 36.3875L46.6656 44.0469L40.4969 45.7094L40.4937 45.7125L34.3344 44.05L33.9219 39.4531H28.3719L29.1625 48.3156L40.4906 51.4531L40.5 51.45L51.8344 48.3156L53.3531 31.3687Z" fill="#E3140E"/>
<defs>
<filter id="filter0_d" x="0" y="0" width="80" height="80" filterUnits="userSpaceOnUse" color-interpolation-filters="sRGB">
<feFlood flood-opacity="0" result="BackgroundImageFix"/>
<feColorMatrix in="SourceAlpha" type="matrix" values="0 0 0 0 0 0 0 0 0 0 0 0 0 0 0 0 0 0 127 0"/>
<feOffset dy="4"/>
<feGaussianBlur stdDeviation="2"/>
<feColorMatrix type="matrix" values="0 0 0 0 0.890196 0 0 0 0 0.0784314 0 0 0 0 0.054902 0 0 0 0.1 0"/>
<feBlend mode="normal" in2="BackgroundImageFix" result="effect1_dropShadow"/>
<feBlend mode="normal" in="SourceGraphic" in2="effect1_dropShadow" result="shape"/>
</filter>
</defs>
</svg>
