<svg width="17" height="19" viewBox="0 0 17 19" fill="none" xmlns="http://www.w3.org/2000/svg">
<path d="M2.89377 5.92038C2.89377 3.97597 4.47587 2.39387 6.42027 2.39387H13.2008C12.9566 1.53934 12.1778 0.909027 11.246 0.909027H2.70816C1.58191 0.909027 0.666504 1.82443 0.666504 2.95069V14.4582C0.666504 15.5845 1.58191 16.4999 2.70816 16.4999H2.89377V5.92038Z" fill="#E3140E"/>
<path d="M14.9584 3.87872H6.42057C5.29431 3.87872 4.37891 4.79413 4.37891 5.92038V16.6855C4.37891 17.8118 5.29431 18.7272 6.42057 18.7272H14.9584C16.0847 18.7272 17.0001 17.8118 17.0001 16.6855V5.92038C17.0001 4.79413 16.0847 3.87872 14.9584 3.87872ZM13.4736 16.4999H7.90541C7.59805 16.4999 7.34859 16.2504 7.34859 15.9431C7.34859 15.6357 7.59805 15.3863 7.90541 15.3863H13.4736C13.7809 15.3863 14.0304 15.6357 14.0304 15.9431C14.0304 16.2504 13.7809 16.4999 13.4736 16.4999ZM13.4736 13.5302H7.90541C7.59805 13.5302 7.34859 13.2808 7.34859 12.9734C7.34859 12.666 7.59805 12.4166 7.90541 12.4166H13.4736C13.7809 12.4166 14.0304 12.666 14.0304 12.9734C14.0304 13.2808 13.7809 13.5302 13.4736 13.5302ZM13.4736 10.9317H7.90541C7.59805 10.9317 7.34859 10.6823 7.34859 10.3749C7.34859 10.0676 7.59805 9.8181 7.90541 9.8181H13.4736C13.7809 9.8181 14.0304 10.0676 14.0304 10.3749C14.0304 10.6823 13.7809 10.9317 13.4736 10.9317ZM13.4736 7.96204H7.90541C7.59805 7.96204 7.34859 7.71259 7.34859 7.40523C7.34859 7.09787 7.59805 6.84841 7.90541 6.84841H13.4736C13.7809 6.84841 14.0304 7.09787 14.0304 7.40523C14.0304 7.71259 13.7809 7.96204 13.4736 7.96204Z" fill="#E3140E"/>
</svg>
