<svg width="80" height="80" viewBox="0 0 80 80" fill="none" xmlns="http://www.w3.org/2000/svg">
<g filter="url(#filter0_d)">
<circle cx="40" cy="36" r="36" fill="white"/>
</g>
<path d="M26.8936 50.8401C23.3345 50.8401 20.1687 48.5065 19.0191 45.0325L18.9413 44.7707C18.6702 43.8507 18.5566 43.0771 18.5566 42.303V26.7811L13.1632 45.2168C12.4696 47.9284 14.0502 50.7396 16.7024 51.4887L51.0799 60.9162C51.5089 61.03 51.938 61.0846 52.3606 61.0846C54.5747 61.0846 56.5979 59.5798 57.1649 57.3621L59.1678 50.8401H26.8936Z" fill="#E3140E"/>
<path d="M33.0076 26.9362C35.4598 26.9362 37.4537 24.8941 37.4537 22.3829C37.4537 19.8718 35.4598 17.8297 33.0076 17.8297C30.5553 17.8297 28.561 19.8718 28.561 22.3829C28.561 24.8941 30.5553 26.9362 33.0076 26.9362Z" fill="#E3140E"/>
<path d="M60.7974 11H27.4493C24.3861 11 21.8915 13.5545 21.8915 16.6917V41.7336C21.8915 44.8708 24.3861 47.4252 27.4493 47.4252H60.7974C63.861 47.4252 66.3556 44.8708 66.3556 41.7336V16.6917C66.3556 13.5545 63.861 11 60.7974 11ZM27.4493 15.5533H60.7974C61.4112 15.5533 61.9091 16.0631 61.9091 16.6917V32.853L54.8861 24.4614C54.1412 23.5668 53.0628 23.0887 51.9047 23.0616C50.7531 23.0682 49.6727 23.5918 48.9346 24.498L40.6774 34.6467L37.9874 31.8988C36.467 30.3419 33.9923 30.3419 32.4739 31.8988L26.338 38.1799V16.6917C26.338 16.0631 26.8359 15.5533 27.4493 15.5533Z" fill="#E3140E"/>
<defs>
<filter id="filter0_d" x="0" y="0" width="80" height="80" filterUnits="userSpaceOnUse" color-interpolation-filters="sRGB">
<feFlood flood-opacity="0" result="BackgroundImageFix"/>
<feColorMatrix in="SourceAlpha" type="matrix" values="0 0 0 0 0 0 0 0 0 0 0 0 0 0 0 0 0 0 127 0"/>
<feOffset dy="4"/>
<feGaussianBlur stdDeviation="2"/>
<feColorMatrix type="matrix" values="0 0 0 0 0.890196 0 0 0 0 0.0784314 0 0 0 0 0.054902 0 0 0 0.1 0"/>
<feBlend mode="normal" in2="BackgroundImageFix" result="effect1_dropShadow"/>
<feBlend mode="normal" in="SourceGraphic" in2="effect1_dropShadow" result="shape"/>
</filter>
</defs>
</svg>
