<svg width="80" height="80" viewBox="0 0 80 80" fill="none" xmlns="http://www.w3.org/2000/svg">
<g filter="url(#filter0_d)">
<circle cx="40" cy="36" r="36" fill="white"/>
</g>
<path d="M15.9962 36C15.9962 30.5342 17.7524 25.3746 21.0749 21.0788C21.6167 20.3783 21.4938 19.3667 20.8006 18.8192C20.1073 18.2719 19.1061 18.3959 18.5643 19.0964C14.7997 23.9637 12.8098 29.809 12.8098 36C12.8098 42.191 14.7997 48.0363 18.5643 52.9036C19.1024 53.5996 20.1027 53.7318 20.8004 53.1808C21.4938 52.6333 21.6166 51.6216 21.0748 50.9212C17.7524 46.6254 15.9962 41.4658 15.9962 36Z" fill="#E3140E"/>
<path d="M61.4359 19.0964C60.8942 18.3958 59.8929 18.2718 59.1996 18.8192C58.5063 19.3667 58.3835 20.3784 58.9253 21.0788C62.2477 25.3746 64.0039 30.5342 64.0039 36C64.0039 41.4658 62.2477 46.6254 58.9252 50.9212C58.3834 51.6217 58.5063 52.6333 59.1995 53.1808C59.8911 53.7267 60.8924 53.6061 61.4358 52.9036C65.2004 48.0363 67.1903 42.191 67.1903 36C67.1903 29.809 65.2004 23.9637 61.4359 19.0964Z" fill="#E3140E"/>
<path d="M40 14C27.994 14 18.2266 23.8692 18.2266 36C18.2266 48.1308 27.994 58 40 58C52.0059 58 61.7734 48.1308 61.7734 36C61.7734 23.8692 52.0059 14 40 14ZM39.6244 44.7267L38.1224 46.2444C35.8396 48.5511 32.1442 48.5515 29.861 46.2444C27.5834 43.9431 27.5834 40.1985 29.861 37.8972L34.3672 33.344C36.645 31.0429 40.3508 31.0429 42.6285 33.3439C43.2507 33.9726 43.2507 34.9918 42.6285 35.6205C42.0064 36.2491 40.9976 36.2492 40.3754 35.6206C39.3401 34.5744 37.6555 34.5747 36.6203 35.6205L32.1141 40.1737C31.0788 41.2197 31.0788 42.9218 32.1141 43.9679C33.1494 45.014 34.8339 45.0139 35.8692 43.9679L37.3712 42.4502C37.9934 41.8215 39.0022 41.8215 39.6243 42.4502C40.2464 43.0789 40.2466 44.0981 39.6244 44.7267ZM50.139 34.1029L45.6327 38.656C43.355 40.9573 39.6493 40.9572 37.3715 38.6561C36.7493 38.0274 36.7493 37.0082 37.3715 36.3795C37.9935 35.7509 39.0023 35.7508 39.6245 36.3794C40.6598 37.4255 42.3444 37.4254 43.3796 36.3795L47.8859 31.8263C48.9211 30.7803 48.9211 29.0782 47.8859 28.0321C46.8506 26.9861 45.1661 26.9863 44.1308 28.0321L42.6287 29.5498C42.0065 30.1785 40.9978 30.1785 40.3756 29.5498C39.7536 28.9212 39.7536 27.902 40.3756 27.2733L41.8777 25.7556C44.1605 23.4489 47.8558 23.4485 50.1391 25.7556C52.4165 28.0569 52.4165 31.8015 50.139 34.1029Z" fill="#E3140E"/>
<defs>
<filter id="filter0_d" x="0" y="0" width="80" height="80" filterUnits="userSpaceOnUse" color-interpolation-filters="sRGB">
<feFlood flood-opacity="0" result="BackgroundImageFix"/>
<feColorMatrix in="SourceAlpha" type="matrix" values="0 0 0 0 0 0 0 0 0 0 0 0 0 0 0 0 0 0 127 0"/>
<feOffset dy="4"/>
<feGaussianBlur stdDeviation="2"/>
<feColorMatrix type="matrix" values="0 0 0 0 0.890196 0 0 0 0 0.0784314 0 0 0 0 0.054902 0 0 0 0.1 0"/>
<feBlend mode="normal" in2="BackgroundImageFix" result="effect1_dropShadow"/>
<feBlend mode="normal" in="SourceGraphic" in2="effect1_dropShadow" result="shape"/>
</filter>
</defs>
</svg>
